
<svg xmlns="http://www.w3.org/2000/svg" version="1.1" xmlns:xlink="http://www.w3.org/1999/xlink" xmlns:svgjs="http://svgjs.dev/svgjs" width="1000" height="623" viewBox="0 0 1000 623"><g transform="matrix(1,0,0,1,-0.6060606060606233,0.2522267206477409)"><svg viewBox="0 0 396 247" data-background-color="#ff908b" preserveAspectRatio="xMidYMid meet" height="623" width="1000" xmlns="http://www.w3.org/2000/svg" xmlns:xlink="http://www.w3.org/1999/xlink"><g id="tight-bounds" transform="matrix(1,0,0,1,0.2400000000000091,-0.09999999999999432)"><svg viewBox="0 0 395.52 247.2" height="247.2" width="395.52"><g><svg></svg></g><g><svg viewBox="0 0 395.52 247.2" height="247.2" width="395.52"><g><g><path xmlns="http://www.w3.org/2000/svg" d="M102.244 195.266h85.111v-50.082h27.591v60.136h-213.946v-10.054h62.196l-20.079-50.082h31.997l7.723 18.75 7.723-18.75h31.839zM1.701 41.88h30.865l24.769 60.136-31.524 0zM133.109 41.88h30.864l-24.201 60.136h-31.432zM371.839 195.266h22.681v10.054h-50.271l0-60.136h27.59zM344.249 77.654l-12.257 24.362-31.846 0 28.904-60.136h42.789l0 60.136-27.59 0zM287.196 191.057h-15.432l-22.984-45.873 61.495 0zM214.946 77.654l0 24.362-27.591 0v-60.136h43.023l28.904 60.136-32.13 0z" fill="#ffffff" fill-rule="nonzero" stroke="none" stroke-width="1" stroke-linecap="butt" stroke-linejoin="miter" stroke-miterlimit="10" stroke-dasharray="" stroke-dashoffset="0" font-family="none" font-weight="none" font-size="none" text-anchor="none" style="mix-blend-mode: normal" data-fill-palette-color="tertiary"></path></g></g><g transform="matrix(1,0,0,1,0,106.89248849557521)"><svg viewBox="0 0 395.52 33.41502300884956" height="33.41502300884956" width="395.52"><g><svg viewBox="0 0 395.52 33.41502300884956" height="33.41502300884956" width="395.52"><g><svg viewBox="0 0 395.52 33.41502300884956" height="33.41502300884956" width="395.52"><g><svg viewBox="0 0 395.52 33.41502300884956" height="33.41502300884956" width="395.52"><g id="textblocktransform"><svg viewBox="0 0 395.52 33.41502300884956" height="33.41502300884956" width="395.52" id="textblock"><g><svg viewBox="0 0 395.52 33.41502300884956" height="33.41502300884956" width="395.52"><g transform="matrix(1,0,0,1,0,0)"><svg width="395.52" viewBox="0 -35.79999923706055 423.7200012207031 35.79999923706055" height="33.41502300884956" data-palette-color="#e50e0e"><path d="M21.65-2.15L35-2.15 35 0 0 0 0-2.15 13.3-2.15 0.15-34.95 6.75-34.95 17.5-8.85 28.25-34.95 34.85-34.95 21.65-2.15ZM35-2.15L39.85-2.15 39.85-34.95 45.75-34.95 45.75-2.15 50.6-2.15 50.6 0 35 0 35-2.15ZM75.84-2.15L82.09-2.15 82.09 0 50.6 0 50.6-2.15 57-2.15Q54.6-3.4 52.6-5.25L52.6-5.25 56.3-9.7Q61.6-5.1 67.3-5.1L67.3-5.1Q70.15-5.1 71.82-6.33 73.5-7.55 73.5-9.58 73.5-11.6 71.92-12.73 70.34-13.85 66.5-14.78 62.65-15.7 60.65-16.48 58.65-17.25 57.1-18.5L57.1-18.5Q54-20.85 54-25.7 54-30.55 57.52-33.18 61.05-35.8 66.25-35.8L66.25-35.8Q69.59-35.8 72.9-34.7 76.2-33.6 78.59-31.6L78.59-31.6 75.45-27.15Q73.9-28.55 71.25-29.45 68.59-30.35 66.02-30.35 63.45-30.35 61.8-29.3 60.15-28.25 60.15-26.13 60.15-24 61.8-22.88 63.45-21.75 68.82-20.45 74.2-19.15 76.92-16.8 79.65-14.45 79.65-10.2L79.65-10.2Q79.65-5.05 75.84-2.15L75.84-2.15ZM120.94 0L120.94-2.15 116.09-2.15 116.09-34.95 110.19-34.95 110.19-19.8 92.84-19.8 92.84-34.95 86.94-34.95 86.94 0 92.84 0 92.84-14.3 110.19-14.3 110.19 0 120.94 0ZM82.09-2.15L86.94-2.15 86.94 0 82.09 0 82.09-2.15ZM120.94-2.15L125.79-2.15 125.79-34.95 131.69-34.95 151.99-8.85 151.99-34.95 157.89-34.95 157.89-2.15 162.74-2.15 162.74 0 151.49 0 131.69-25.5 131.69 0 120.94 0 120.94-2.15ZM190.74-2.15L201.14-2.15 201.14 0 162.74 0 162.74-2.15 173.09-2.15Q167.14-6.3 167.14-15.3L167.14-15.3 167.14-34.95 173.04-34.95 173.04-15.55Q173.04-10.75 175.44-7.95 177.84-5.15 181.94-5.15 186.04-5.15 188.44-7.95 190.84-10.75 190.84-15.55L190.84-15.55 190.84-34.95 196.74-34.95 196.74-15.3Q196.74-6.25 190.74-2.15L190.74-2.15ZM201.14-2.15L214.84-2.15 214.84 0 201.14 0 201.14-2.15ZM259.13-2.15L263.98-2.15 263.98 0 253.23 0 253.23-27.3 241.03-3.05 237.73-3.05 225.58-27.3 225.58 0 214.83 0 214.83-2.15 219.68-2.15 219.68-34.95 228.88-34.95 239.43-13 249.98-34.95 259.13-34.95 259.13-2.15ZM294.53-2.15L305.98-2.15 305.98 0 263.98 0 263.98-2.15 275.43-2.15Q271.33-4.5 268.96-8.6 266.58-12.7 266.58-17.75L266.58-17.75Q266.58-25.45 271.88-30.63 277.18-35.8 284.98-35.8 292.78-35.8 298.08-30.63 303.38-25.45 303.38-17.75L303.38-17.75Q303.38-12.75 301-8.6 298.63-4.45 294.53-2.15L294.53-2.15ZM293.75-26.7Q290.18-30.4 284.98-30.4 279.78-30.4 276.21-26.7 272.63-23 272.63-17.73 272.63-12.45 276.21-8.75 279.78-5.05 284.98-5.05 290.18-5.05 293.75-8.75 297.33-12.45 297.33-17.73 297.33-23 293.75-26.7ZM344.83 0L344.83-2.15 339.98-2.15 339.98-34.95 334.08-34.95 334.08-19.8 316.73-19.8 316.73-34.95 310.83-34.95 310.83 0 316.73 0 316.73-14.3 334.08-14.3 334.08 0 344.83 0ZM305.98-2.15L310.83-2.15 310.83 0 305.98 0 305.98-2.15ZM380.98-2.15L386.78-2.15 386.78 0 375.63 0 372.13-7.95 354.63-7.95 351.13 0 339.98 0 339.98-2.15 345.78-2.15 360.23-34.95 366.53-34.95 380.98-2.15ZM357.03-13.4L369.73-13.4 363.38-27.8 357.03-13.4ZM381.92-2.15L386.77-2.15 386.77-34.95 392.67-34.95 412.97-8.85 412.97-34.95 418.87-34.95 418.87-2.15 423.72-2.15 423.72 0 412.47 0 392.67-25.5 392.67 0 381.92 0 381.92-2.15Z" opacity="1" transform="matrix(1,0,0,1,0,0)" fill="#ffffff" class="undefined-text-0" data-fill-palette-color="primary" id="text-0"></path></svg></g></svg></g></svg></g></svg></g></svg></g></svg></g></svg></g></svg></g><defs></defs></svg><rect width="395.52" height="247.2" fill="none" stroke="none" visibility="hidden"></rect></g></svg></g></svg>