
<svg xmlns="http://www.w3.org/2000/svg" version="1.1" xmlns:xlink="http://www.w3.org/1999/xlink" xmlns:svgjs="http://svgjs.dev/svgjs" width="128" height="128" viewBox="0 0 128 128"><g transform="matrix(0.8046875,0,0,0.8046875,12.333870967741937,12.333870967741937)"><svg viewBox="0 0 155 155" data-background-color="#ff908b" preserveAspectRatio="xMidYMid meet" height="128" width="128" xmlns="http://www.w3.org/2000/svg" xmlns:xlink="http://www.w3.org/1999/xlink"><g id="tight-bounds" transform="matrix(1,0,0,1,0.25,0.25)"><svg viewBox="0 0 154.5 154.5" height="154.5" width="154.5"><g><svg></svg></g><g><svg viewBox="0 0 154.5 154.5" height="154.5" width="154.5"><g transform="matrix(1,0,0,1,29.509500000000003,57.42194919786097)"><svg viewBox="0 0 95.481 39.65610160427807" height="39.65610160427807" width="95.481"><g><svg viewBox="0 0 95.481 39.65610160427807" height="39.65610160427807" width="95.481"><g><svg viewBox="0 0 95.481 39.65610160427807" height="39.65610160427807" width="95.481"><g id="textblocktransform"><svg viewBox="0 0 95.481 39.65610160427807" height="39.65610160427807" width="95.481" id="textblock"><g><svg viewBox="0 0 95.481 39.65610160427807" height="39.65610160427807" width="95.481"><g transform="matrix(1,0,0,1,0,0)"><svg width="95.481" viewBox="0 -34.95 84.15 34.95" height="39.65610160427807" data-palette-color="#e50e0e"><path d="M21.65-2.15L35-2.15 35 0 0 0 0-2.15 13.3-2.15 0.15-34.95 6.75-34.95 17.5-8.85 28.25-34.95 34.85-34.95 21.65-2.15ZM79.3-2.15L84.15-2.15 84.15 0 73.4 0 73.4-27.3 61.2-3.05 57.9-3.05 45.75-27.3 45.75 0 35 0 35-2.15 39.85-2.15 39.85-34.95 49.05-34.95 59.6-13 70.15-34.95 79.3-34.95 79.3-2.15Z" opacity="1" transform="matrix(1,0,0,1,0,0)" fill="#e50e0e" class="undefined-text-0" data-fill-palette-color="primary" id="text-0"></path></svg></g></svg></g></svg></g></svg></g></svg></g></svg></g><g><path d="M0 154.5v-154.5h154.5v154.5zM150.924 150.924v-147.348h-147.348v147.348z" fill="#ffffff" fill-rule="nonzero" stroke="none" stroke-width="1" stroke-linecap="butt" stroke-linejoin="miter" stroke-miterlimit="10" stroke-dasharray="" stroke-dashoffset="0" font-family="none" font-weight="none" font-size="none" text-anchor="none" style="mix-blend-mode: normal" data-fill-palette-color="tertiary"></path></g></svg></g><defs></defs></svg><rect width="154.5" height="154.5" fill="none" stroke="none" visibility="hidden"></rect></g></svg></g></svg>